<svg id="icons" enable-background="new 0 0 64 64" height="512" viewBox="0 0 64 64" width="512" xmlns="http://www.w3.org/2000/svg"><g><g><path d="m55.996 63.999c-.553 0-1-.447-1-1s.447-1 1-1c1.654 0 3-1.346 3-3s-1.346-3-3-3c-.553 0-1-.447-1-1s.447-1 1-1c2.757 0 5 2.243 5 5s-2.243 5-5 5z"/></g><g><path d="m59.996 29.996c-.553 0-1-.448-1-1 0-1.654-1.346-3-3-3-.553 0-1-.448-1-1s.447-1 1-1c2.757 0 5 2.243 5 5 0 .552-.447 1-1 1z"/></g><g><path d="m55.996 55.999c-.553 0-1-.447-1-1v-30.003c0-.552.447-1 1-1s1 .448 1 1v30.003c0 .553-.447 1-1 1z"/></g><g><path d="m59.996 59.999c-.553 0-1-.447-1-1v-30.003c0-.552.447-1 1-1s1 .448 1 1v30.003c0 .553-.447 1-1 1z"/></g><g><path d="m8.004 63.999c-2.757 0-5-2.243-5-5s2.243-5 5-5c.553 0 1 .447 1 1s-.447 1-1 1c-1.654 0-3 1.346-3 3s1.346 3 3 3c.553 0 1 .447 1 1s-.447 1-1 1z"/></g><g><path d="m4.004 29.996c-.553 0-1-.448-1-1 0-2.757 2.243-5 5-5 .553 0 1 .448 1 1s-.447 1-1 1c-1.654 0-3 1.346-3 3 0 .552-.447 1-1 1z"/></g><g><path d="m8.004 55.999c-.553 0-1-.447-1-1v-30.003c0-.552.447-1 1-1s1 .448 1 1v30.003c0 .553-.447 1-1 1z"/></g><g><path d="m4.004 59.999c-.553 0-1-.447-1-1v-30.003c0-.552.447-1 1-1s1 .448 1 1v30.003c0 .553-.447 1-1 1z"/></g><g><path d="m23.002 33.987h-15.002c-.553 0-1-.447-1-1 0-.552.447-1 1-1h15.002c.553 0 1 .448 1 1 0 .553-.447 1-1 1z"/></g><g><path d="m55.996 63.999h-47.996c-.553 0-1-.447-1-1s.447-1 1-1h47.996c.553 0 1 .447 1 1s-.447 1-1 1z"/></g><g><g><path d="m23.002 48.994c-.553 0-1-.447-1-1v-31.995c0-.552.447-1 1-1s1 .448 1 1v31.995c0 .553-.447 1-1 1z"/></g><g><path d="m40.996 48.994c-.553 0-1-.447-1-1v-31.995c0-.552.447-1 1-1s1 .448 1 1v31.995c0 .553-.447 1-1 1z"/></g><g><path d="m40.996 16.999h-17.994c-.553 0-1-.448-1-1s.447-1 1-1h17.994c.553 0 1 .448 1 1s-.447 1-1 1z"/></g><g><path d="m44.998 48.994h-25.996c-.553 0-1-.447-1-1s.447-1 1-1h25.996c.553 0 1 .447 1 1s-.447 1-1 1z"/></g><g><path d="m28.002 43.994c-.553 0-1-.447-1-1v-22.996c0-.552.447-1 1-1s1 .448 1 1v22.996c0 .553-.447 1-1 1z"/></g><g><path d="m32 39.994c-.553 0-1-.447-1-1v-18.996c0-.552.447-1 1-1s1 .448 1 1v18.996c0 .553-.447 1-1 1z"/></g><g><path d="m35.998 43.994c-.553 0-1-.447-1-1v-22.996c0-.552.447-1 1-1s1 .448 1 1v22.996c0 .553-.447 1-1 1z"/></g><g><path d="m30 16.999c-.553 0-1-.448-1-1v-3c0-.552.447-1 1-1s1 .448 1 1v3c0 .552-.447 1-1 1z"/></g><g><path d="m33.998 16.999c-.553 0-1-.448-1-1v-3c0-.552.447-1 1-1s1 .448 1 1v3c0 .552-.447 1-1 1z"/></g><g><path d="m26.002 16.999c-.553 0-1-.448-1-1v-6.999c0-.552.447-1 1-1s1 .448 1 1v6.999c0 .552-.447 1-1 1z"/></g><g><path d="m37.996 16.999c-.553 0-1-.448-1-1v-6.999c0-.552.447-1 1-1s1 .448 1 1v6.999c0 .552-.447 1-1 1z"/></g><g><path d="m37.996 10h-11.994c-.553 0-1-.448-1-1s.447-1 1-1h11.994c.553 0 1 .448 1 1s-.447 1-1 1z"/></g><g><path d="m29 10c-.553 0-1-.448-1-1v-4c0-.552.447-1 1-1s1 .448 1 1v4c0 .552-.447 1-1 1z"/></g><g><path d="m35 10c-.553 0-1-.448-1-1v-4c0-.552.447-1 1-1s1 .448 1 1v4c0 .552-.447 1-1 1z"/></g><g><path d="m35 6h-6c-.553 0-1-.448-1-1s.447-1 1-1h6c.553 0 1 .448 1 1s-.447 1-1 1z"/></g><g><path d="m32 6c-.553 0-1-.448-1-1v-3.999c0-.552.447-1 1-1s1 .448 1 1v3.999c0 .552-.447 1-1 1z"/></g><g><path d="m32 48.994c-.553 0-1-.447-1-1v-4c0-.553.447-1 1-1s1 .447 1 1v4c0 .553-.447 1-1 1z"/></g></g><g><path d="m55.996 34.042h-15c-.553 0-1-.447-1-1 0-.552.447-1 1-1h15c.553 0 1 .448 1 1 0 .553-.447 1-1 1z"/></g><g><g><path d="m51.998 54.01h-35.998c-.553 0-1-.447-1-1s.447-1 1-1h35.998c.553 0 1 .447 1 1s-.447 1-1 1z"/></g><g><path d="m51.998 58.01c-.553 0-1-.447-1-1v-4c0-.553.447-1 1-1s1 .447 1 1v4c0 .553-.447 1-1 1z"/></g><g><path d="m51.998 58.01h-35.998c-.553 0-1-.447-1-1s.447-1 1-1h35.998c.553 0 1 .447 1 1s-.447 1-1 1z"/></g><g><path d="m15.999 58.01c-.15 0-.303-.034-.446-.105l-4-2c-.494-.247-.694-.848-.447-1.342.248-.494.849-.693 1.342-.447l4 2c.494.247.694.848.447 1.342-.176.35-.529.552-.896.552z"/></g><g><path d="m12.001 56.01c-.367 0-.72-.202-.896-.553-.247-.494-.047-1.095.447-1.342l4-2c.494-.245 1.094-.047 1.342.447.247.494.047 1.095-.447 1.342l-4 2c-.143.072-.296.106-.446.106z"/></g><g><path d="m47.998 58.01c-.553 0-1-.447-1-1v-4c0-.553.447-1 1-1s1 .447 1 1v4c0 .553-.447 1-1 1z"/></g><g><path d="m43.998 58.01c-.553 0-1-.447-1-1v-4c0-.553.447-1 1-1s1 .447 1 1v4c0 .553-.447 1-1 1z"/></g></g></g></svg>